<?xml version="1.0" encoding="UTF-8" standalone="no"?>
<svg
   xmlns:dc="http://purl.org/dc/elements/1.1/"
   xmlns:cc="http://creativecommons.org/ns#"
   xmlns:rdf="http://www.w3.org/1999/02/22-rdf-syntax-ns#"
   xmlns:svg="http://www.w3.org/2000/svg"
   xmlns="http://www.w3.org/2000/svg"
   id="svg8"
   version="1.1"
   viewBox="0 0 583.83002 346.55627"
   height="346.55627mm"
   width="583.83002mm">
  <defs
     id="defs2" />
  <metadata
     id="metadata5">
    <rdf:RDF>
      <cc:Work
         rdf:about="">
        <dc:format>image/svg+xml</dc:format>
        <dc:type
           rdf:resource="http://purl.org/dc/dcmitype/StillImage" />
        <dc:title></dc:title>
      </cc:Work>
    </rdf:RDF>
  </metadata>
  <g
     transform="translate(751.31364,55.484899)"
     id="layer1">
    <path
       style="fill:#e2d9cb;fill-opacity:1;stroke:none;stroke-width:0.26458332px;stroke-linecap:butt;stroke-linejoin:miter;stroke-opacity:1"
       d="m -364.15761,255.55014 c 0.0249,-0.76768 0.0747,-2.30288 -0.71879,-3.54289 -0.79351,-1.24001 -2.43039,-2.18506 -4.79204,-2.56665 -2.36166,-0.38158 -5.44952,-0.19995 -8.89454,0.5387 -3.44502,0.73865 -7.24867,2.03456 -10.34877,3.37251 -3.1001,1.33794 -5.49743,2.7182 -8.52923,3.62278 -3.0318,0.90457 -6.69862,1.33365 -7.37368,1.99861 -0.67506,0.66495 1.64181,1.56611 4.78497,2.66676 3.14317,1.10065 7.11178,2.4005 10.37483,2.3563 3.26305,-0.0442 5.81781,-1.4319 9.94723,-2.84398 4.12943,-1.41209 9.83148,-2.84772 12.68142,-3.65757 2.84995,-0.80985 2.84695,-0.99347 2.84545,-1.08518 -0.001,-0.0917 -0.002,-0.0917 0.0232,-0.85939 z"
       id="path951-4" />
    <g
       transform="translate(-518.58333,-34.77381)"
       id="g1131">
      <path
         style="fill:#27252b;fill-opacity:1;stroke:none;stroke-width:0.26458332px;stroke-linecap:butt;stroke-linejoin:miter;stroke-opacity:1"
         d="m 350.85628,308.96912 c 0.0315,-1.26005 0.0945,-3.77989 0.189,-5.60671 0.0945,-1.82681 0.2205,-2.96087 -1.09581,-3.0373 -1.31631,-0.0764 -4.22752,0.95867 -7.81815,2.56501 -3.59063,1.60634 -7.93759,3.81132 -10.86684,5.60667 -2.92926,1.79536 -4.4412,3.1813 -4.7878,4.28359 -0.34661,1.10229 0.47233,1.92123 3.08736,3.40204 2.61502,1.48081 7.02333,3.62199 10.84607,5.27699 3.82273,1.65501 7.11334,2.84292 8.75139,0.88973 1.63805,-1.9532 1.65065,-7.03648 1.65695,-9.57822 0.006,-2.54175 0.006,-2.54175 0.0378,-3.8018 z"
         id="path923" />
      <path
         style="fill:#917c6f;fill-opacity:1;stroke:none;stroke-width:0.26458332px;stroke-linecap:butt;stroke-linejoin:miter;stroke-opacity:1"
         d="m -43.348365,32.36156 c 0.366429,-1.469668 1.099224,-4.408747 0.10235,-9.064287 -0.996875,-4.65554 -3.723686,-11.028572 -6.687068,-16.0827133 -2.963382,-5.0541412 -6.163822,-8.7904078 -9.622954,-12.0400048 -3.459131,-3.2495971 -7.17764,-6.0132069 -11.003606,-8.5279509 -3.825966,-2.514743 -7.760262,-4.781214 -10.267398,-5.957157 -2.507136,-1.175943 -3.587637,-1.261697 -7.605973,-1.345568 -4.018337,-0.08387 -10.977397,-0.165914 -16.519156,0.518222 -5.54176,0.684137 -9.66799,2.134487 -13.02655,4.18925 -3.35857,2.054764 -5.94983,4.71417 -8.69193,7.9786594 -2.74211,3.2644895 -5.63499,7.13395155 -7.7392,11.1542694 -2.10421,4.0203179 -3.41959,8.1912642 -4.15196,11.8650502 -0.73236,3.673786 -0.8816,6.849997 -0.50153,9.928947 0.38006,3.07895 1.28937,6.05992 2.87925,8.706008 1.58988,2.646087 3.85987,4.956384 7.76172,7.168874 3.90185,2.21249 9.43407,4.326283 14.29691,5.997827 4.86284,1.671545 9.05526,2.900456 12.71844,3.859704 3.66318,0.959249 6.796499,1.648662 9.936976,1.956779 3.140477,0.308116 6.304007,0.234456 10.280461,-0.113204 3.976454,-0.34766 8.773316,-0.969448 13.195699,-1.93988 4.422384,-0.970432 8.501469,-2.299755 11.545023,-3.569844 3.043555,-1.270089 5.067184,-2.48601 6.953076,-4.190838 1.885891,-1.704829 3.633926,-3.898442 4.574437,-5.483739 0.940512,-1.585298 1.073556,-2.562184 1.140055,-3.050462 0.0665,-0.488277 0.0665,-0.488274 0.432928,-1.957942 z"
         id="path839" />
      <path
         style="fill:#666666;fill-opacity:1;stroke:none;stroke-width:0.26458332px;stroke-linecap:butt;stroke-linejoin:miter;stroke-opacity:1"
         d="m -109.64528,49.605923 c -2.47219,-0.423202 -4.61035,-0.423202 -7.14957,-0.06684 -2.53922,0.356366 -5.47882,1.068996 -8.24368,1.930113 -2.76485,0.861117 -5.4314,1.900617 -7.74789,3.482019 -2.31649,1.581402 -4.32076,3.719295 -5.79087,5.924392 -1.4701,2.205097 -2.40542,4.476597 -2.56138,6.369955 -0.15596,1.893359 0.46758,3.407672 1.46992,5.12278 1.00233,1.715107 2.3831,3.630371 4.36543,5.36769 1.98234,1.737318 4.56588,3.296351 8.03431,4.719978 3.46843,1.423627 7.84608,2.719054 17.89041,4.235972 10.044333,1.516918 25.680763,3.249363 36.41607,3.850697 10.735307,0.601334 16.526237,0.06679 21.114293,-1.024587 4.588056,-1.091373 7.973644,-2.73962 10.512572,-4.744103 2.538928,-2.004482 4.231793,-4.365581 5.011225,-6.837635 0.779432,-2.472055 0.645779,-5.055989 -0.490024,-7.795258 -1.135802,-2.739269 -3.274168,-5.634972 -5.529399,-7.785576 -2.255232,-2.150604 -4.693657,-3.595597 -8.613654,-5.087878 -3.919998,-1.49228 -9.354298,-3.051301 -12.338811,-3.897659 -2.984514,-0.846357 -3.519034,-0.979987 -4.722593,-0.894423 -1.203559,0.08556 -3.161729,0.404336 -5.812432,0.627091 -2.650702,0.222754 -6.035582,0.356368 -9.465687,0.423191 -3.430105,0.06682 -6.904325,0.06682 -9.934704,-0.239989 -3.030379,-0.306812 -5.700505,-0.940401 -8.417856,-1.67542 -2.71736,-0.735019 -5.52348,-1.581312 -7.99568,-2.004514 z"
         id="path843" />
      <path
         style="fill:#917c6f;fill-opacity:1;stroke:none;stroke-width:0.26458332px;stroke-linecap:butt;stroke-linejoin:miter;stroke-opacity:1"
         d="m -110.63945,88.999647 c -1.19677,0.377925 -3.59062,1.133877 -5.62236,2.141835 -2.03175,1.007958 -3.70092,2.26771 -4.75623,3.448929 -1.0553,1.18122 -1.4962,2.283452 -1.65374,3.638133 -0.15755,1.354682 -0.0316,2.960606 0.58271,4.299476 0.61431,1.33887 1.71657,2.40964 3.49629,3.3231 1.77971,0.91347 4.23656,1.66943 7.41775,2.4096 3.18119,0.74017 7.08721,1.46468 11.82754,1.90563 4.740327,0.44095 10.315777,0.59845 17.749101,0.4882 7.433324,-0.11024 16.725674,-0.48823 22.442547,-1.37025 5.716872,-0.88202 7.858799,-2.26797 9.386321,-3.77982 1.527522,-1.51184 2.441094,-3.14997 2.661519,-5.05533 0.220424,-1.905365 -0.252136,-4.079133 -1.070999,-5.669622 -0.818864,-1.59049 -1.984396,-2.598516 -3.307197,-3.055253 -1.322801,-0.456738 -2.803181,-0.362245 -6.457508,-0.299238 -3.654328,0.06301 -9.480358,0.0945 -16.221121,-0.236237 -6.740764,-0.330734 -14.394434,-1.023658 -19.764894,-1.511882 -5.37046,-0.488223 -8.457179,-0.771696 -10.662069,-0.913447 -2.2049,-0.141752 -3.52772,-0.141752 -4.18931,-0.141752 -0.66159,0 -0.66159,3e-6 -1.85835,0.377928 z"
         id="path847" />
      <path
         style="fill:#cccccc;fill-opacity:1;stroke:none;stroke-width:0.26458332px;stroke-linecap:butt;stroke-linejoin:miter;stroke-opacity:1"
         d="m -115.32497,109.15784 c -2.53875,1.38072 -5.07781,2.76162 -7.30518,4.16485 -2.22738,1.40322 -4.14257,2.82848 -5.65721,4.23172 -1.51465,1.40324 -2.6281,2.78391 -3.20729,3.69714 -0.57919,0.91322 -0.62373,1.35856 -0.60145,2.51736 0.0223,1.15879 0.11132,3.02847 1.29192,5.07782 1.1806,2.04934 3.45208,4.27628 7.92894,6.0581 4.47687,1.78182 11.15861,3.11816 17.14985,3.85314 5.991238,0.73497 11.292248,0.8686 17.728817,0.75724 6.43657,-0.11136 14.00957,-0.46774 20.334869,-1.11364 6.325299,-0.64591 11.403609,-1.58138 15.357712,-2.99991 3.954102,-1.41853 6.825766,-3.34793 8.496061,-5.28558 1.670295,-1.93766 2.160341,-3.89785 2.093508,-5.99121 -0.06683,-2.09337 -0.690562,-4.32097 -1.804095,-6.25852 -1.113534,-1.93755 -2.717284,-3.58585 -4.409933,-4.85535 -1.692649,-1.2695 -3.474445,-2.1604 -5.011195,-2.56134 -1.53675,-0.40093 -2.828482,-0.31185 -6.838253,0.0891 -4.009771,0.40097 -10.734591,1.11354 -17.349668,1.35855 -6.615077,0.24501 -13.118357,0.0223 -19.599784,-0.51225 -6.481429,-0.53455 -12.940189,-1.38087 -19.399429,-2.22725"
         id="path851" />
      <path
         style="fill:#6c5d53;fill-opacity:1;stroke:none;stroke-width:0.26458332px;stroke-linecap:butt;stroke-linejoin:miter;stroke-opacity:1"
         d="m -117.73012,138.3355 c -9.04257,-0.20053 -10.60165,0.46765 -12.13863,1.51454 -1.53698,1.04689 -3.05119,2.47204 -4.05359,4.09806 -1.0024,1.62603 -1.49231,3.45204 -1.71508,5.30084 -0.22276,1.84881 -0.17822,3.71937 0.13361,5.7018 0.31183,1.98244 0.89084,4.07576 1.89317,6.01361 1.00233,1.93785 2.42765,3.7195 4.61045,5.27863 2.18281,1.55913 5.12272,2.89545 8.55264,3.94223 3.42992,1.04678 7.35003,1.80408 17.88449,1.98224 10.534451,0.17817 27.685151,-0.22275 37.730026,-0.46709 10.044875,-0.24433 13.073947,-0.33475 16.169689,-0.73565 3.095743,-0.4009 6.303263,-1.11369 9.042672,-2.04912 2.73941,-0.93544 5.01142,-2.09372 6.503557,-3.27415 1.492138,-1.18043 2.204957,-2.38331 2.338535,-3.9198 0.133577,-1.5365 -0.31199,-3.40787 -1.135987,-4.96679 -0.823997,-1.55891 -2.026838,-2.8063 -3.674968,-4.18717 -1.64813,-1.38086 -3.741748,-2.8954 -6.392155,-4.20948 -2.650407,-1.31408 -5.857567,-2.42767 -9.153957,-3.42996 -3.29639,-1.00228 -6.681648,-1.89314 -9.777573,-2.53906 -3.095926,-0.64592 -5.902106,-1.04681 -8.307597,-1.29182 -2.405491,-0.24501 -4.409849,-0.33409 -13.676237,-0.91324 -9.266388,-0.57915 -25.790485,-1.64809 -34.833065,-1.84862 z"
         id="path859" />
      <path
         style="fill:#cccccc;fill-opacity:1;stroke:none;stroke-width:0.26458332px;stroke-linecap:butt;stroke-linejoin:miter;stroke-opacity:1"
         d="m -107.41795,173.48761 c -11.33666,0.66811 -13.56391,1.55901 -16.30365,2.62817 -2.73975,1.06917 -5.99107,2.31625 -8.88662,3.78628 -2.89555,1.47002 -5.43436,3.16257 -7.08264,4.78849 -1.64828,1.62593 -2.40545,3.18481 -2.85098,5.01138 -0.44554,1.82657 -0.57915,3.91976 -0.11139,5.94678 0.46776,2.02702 1.5367,3.98673 3.74182,5.90228 2.20513,1.91555 5.54583,3.78635 9.82212,5.47903 4.27629,1.69269 9.48818,3.20726 13.83127,4.23178 4.34309,1.02451 7.81771,1.55907 11.40348,1.89314 3.58577,0.33407 7.283245,0.46771 11.782297,0.29156 4.499052,-0.17616 9.888981,-0.67023 14.766544,-1.31613 4.877563,-0.64589 9.287743,-1.44775 14.855622,-2.24952 5.567879,-0.80177 12.294619,-1.60363 18.040818,-2.58362 5.7462,-0.97998 10.51272,-2.1382 14.098504,-3.47455 3.585784,-1.33636 5.991375,-2.85099 7.372123,-4.43229 1.380749,-1.58129 1.737153,-3.22966 1.536711,-5.27843 -0.200442,-2.04877 -0.957848,-4.49919 -2.47226,-6.68174 -1.514413,-2.18254 -3.786359,-4.0981 -8.352197,-6.43671 -4.565838,-2.3386 -11.425676,-5.10036 -15.635162,-6.68171 -4.209486,-1.58135 -5.768525,-1.98225 -16.772287,-1.95998 -11.003762,0.0223 -31.447462,0.46767 -42.784123,1.13579 z"
         id="path863" />
      <path
         style="fill:#6c5d53;fill-opacity:1;stroke:none;stroke-width:0.26458332px;stroke-linecap:butt;stroke-linejoin:miter;stroke-opacity:1"
         d="m -129.73501,209.84781 c -3.5858,0.0667 -6.74848,1.44762 -9.24309,2.73945 -2.49462,1.29183 -4.32078,2.49443 -5.90225,3.74176 -1.58147,1.24734 -2.9176,2.53893 -4.16502,4.14271 -1.24741,1.60378 -2.40535,3.51883 -3.14044,5.54581 -0.73508,2.02697 -1.04685,4.16478 -0.71274,6.72639 0.3341,2.5616 1.31396,5.54571 3.20725,8.04037 1.89328,2.49466 4.69947,4.49908 7.86219,5.92451 3.16273,1.42544 6.68184,2.27181 10.80214,2.91769 4.1203,0.64588 8.84231,1.09135 23.11838,0.80181 14.276076,-0.28953 38.108806,-1.31412 52.407711,-2.3164 14.298906,-1.00228 19.065276,-1.98228 23.007405,-3.29635 3.94213,-1.31407 7.060472,-2.96234 9.577109,-5.16724 2.516638,-2.2049 4.432263,-4.96697 5.478965,-7.32774 1.046702,-2.36076 1.224901,-4.32095 0.721893,-6.41918 -0.503008,-2.09823 -1.724308,-4.40514 -3.261009,-6.1423 -1.536701,-1.73716 -3.407666,-2.93992 -6.124921,-4.09811 -2.717255,-1.15818 -6.280716,-2.27176 -10.289839,-3.16268 -4.009123,-0.89093 -8.463403,-1.55907 -16.437193,-1.26953 -7.973791,0.28954 -19.465811,1.53674 -28.686711,2.2272 -9.2209,0.69046 -16.16973,0.82409 -21.89387,0.53456 -5.72414,-0.28954 -10.223,-1.00223 -14.47716,-1.98224 -4.25416,-0.98001 -8.26301,-2.22721 -11.8488,-2.16049 z"
         id="path867" />
      <path
         style="fill:#666666;stroke:none;stroke-width:0.26458332px;stroke-linecap:butt;stroke-linejoin:miter;stroke-opacity:1"
         d="m -62.705957,251.69779 c 14.521638,0.97998 19.020668,1.55906 23.297104,2.33861 4.276436,0.77955 8.329767,1.75947 11.804381,3.1181 3.474614,1.35863 6.369806,3.09575 8.574903,4.94441 2.205097,1.84867 3.719463,3.80844 4.543659,5.87995 0.824196,2.07151 0.957809,4.25388 0.757356,6.34766 -0.200452,2.09379 -0.734922,4.09806 -1.302922,5.40112 -0.567999,1.30305 -1.213854,1.94891 -3.86441,2.14935 -2.650556,0.20044 -7.327776,-0.0223 -12.873427,-0.33409 -5.545652,-0.31181 -11.960501,-0.71273 -16.771274,-0.91318 -4.810773,-0.20044 -8.018153,-0.20044 -11.514788,-0.46771 -3.496635,-0.26726 -7.283267,-0.80185 -11.158496,-1.00228 -3.87523,-0.20043 -7.84004,-0.0668 -12.717463,1.20269 -4.877422,1.26947 -10.668633,3.67506 -18.063066,4.47684 -7.39443,0.80178 -16.39271,-5e-5 -23.20803,-1.35869 -6.81532,-1.35865 -11.44814,-3.27414 -15.36796,-4.34316 -3.91982,-1.06901 -7.12729,-1.29175 -9.28754,-0.97995 -2.16026,0.31181 -3.27398,1.15823 -4.33617,1.21935 -1.0622,0.0611 -2.77217,-1.16382 -3.74921,-2.4304 -0.97704,-1.26659 -2.35686,-3.9119 -1.86871,-6.67333 0.48815,-2.76142 2.6266,-6.05821 7.57094,-9.57717 4.94434,-3.51895 12.6953,-7.26079 17.48387,-9.42123 4.78857,-2.16043 6.61489,-2.73951 19.80123,-2.33857 13.18634,0.40093 37.728386,1.7817 52.250023,2.76168 z"
         id="path871" />
      <path
         style="fill:#7a6e67;fill-opacity:1;stroke:none;stroke-width:0.26458332px;stroke-linecap:butt;stroke-linejoin:miter;stroke-opacity:1"
         d="m -156.87389,256.55301 c -1.29187,-0.7126 -3.34094,-1.24714 -6.72594,-1.11351 -3.385,0.13363 -8.10747,0.93556 -12.07185,2.00462 -3.96439,1.06906 -7.17177,2.40547 -8.95348,4.94431 -1.78172,2.53884 -2.1381,6.28076 -1.91542,9.35439 0.22268,3.07364 1.02445,5.47892 1.95986,6.85995 0.93542,1.38102 2.00433,1.73733 4.49949,1.55911 2.49516,-0.17821 6.41396,-0.89072 9.04219,-1.5589 2.62823,-0.66819 3.96451,-1.29179 5.16734,-2.49464 1.20283,-1.20285 2.27183,-2.9845 4.14266,-5.92437 1.87083,-2.93987 4.54364,-7.03817 5.61261,-9.53281 1.06896,-2.49463 0.53441,-3.38555 -0.75746,-4.09815 z"
         id="path883" />
      <path
         style="fill:#937a63;fill-opacity:1;stroke:none;stroke-width:0.28246033px;stroke-linecap:butt;stroke-linejoin:miter;stroke-opacity:1"
         d="m -188.45615,271.41322 c -2.4056,1.21848 -6.94918,-0.91376 -10.28997,-2.38598 -3.34078,-1.47223 -5.47908,-2.28458 -5.07829,-3.40128 0.4008,-1.1167 3.3412,-2.53841 5.92483,-3.65532 2.58364,-1.1169 4.8108,-1.92916 6.81528,-2.03075 2.00448,-0.1016 3.78616,0.50758 4.54357,3.09706 0.75742,2.58949 0.49019,7.15778 -1.91542,8.37627 z"
         id="path887" />
      <path
         style="fill:#5e452a;fill-opacity:1;stroke:none;stroke-width:0.26458332px;stroke-linecap:butt;stroke-linejoin:miter;stroke-opacity:1"
         d="m -187.11986,276.50908 c -2.31642,-1.87082 -6.23638,-4.18715 -10.02256,-6.19159 -3.78617,-2.00443 -7.43915,-3.69727 -10.379,-4.72174 -2.93986,-1.02447 -5.16731,-1.38086 -7.17164,-1.24722 -2.00433,0.13365 -3.78635,0.75735 -5.38983,1.82633 -1.60347,1.06898 -3.02903,2.58363 -1.9601,4.05357 1.06892,1.46993 4.6325,2.89536 8.24079,4.09814 3.6083,1.20278 7.26067,2.18267 10.73532,3.38543 3.47465,1.20275 6.77067,2.62806 9.30982,3.78626 2.53915,1.1582 4.32077,2.04901 5.92465,1.95992 1.60388,-0.0891 3.02907,-1.15798 3.38536,-2.40543 0.35629,-1.24746 -0.3564,-2.67285 -2.67281,-4.54367 z"
         id="path891" />
      <path
         style="fill:none;stroke:none;stroke-width:0.28460616px;stroke-linecap:butt;stroke-linejoin:miter;stroke-opacity:1"
         d="m -219.78693,261.84733 c -0.44616,-1.48247 -3.61825,-3.61332 -6.245,-4.67864 -2.62676,-1.06531 -4.70866,-1.06531 -5.79891,1.20405 -1.09025,2.26937 -1.18939,6.80966 -0.29735,9.21855 0.89204,2.4089 2.77533,2.68682 4.31212,1.89916 1.53678,-0.78766 2.72609,-2.64024 4.46067,-3.98353 1.73459,-1.34328 4.01462,-2.17712 3.56847,-3.65959 z"
         id="path895" />
      <path
         style="fill:#e4d5c1;fill-opacity:1;stroke:none;stroke-width:0.26458332px;stroke-linecap:butt;stroke-linejoin:miter;stroke-opacity:1"
         d="m -127.20672,294.32707 c 0.13358,-0.71281 0.0445,-1.15825 -0.75684,-3.02801 -0.80133,-1.86977 -2.3169,-5.16835 -4.63314,-6.77181 -2.31624,-1.60345 -5.43469,-1.51435 -9.97795,-0.0445 -4.54326,1.46988 -10.51279,4.321 -14.34357,6.77091 -3.83078,2.44991 -5.5235,4.499 -7.3499,6.19175 -1.8264,1.69275 -3.78635,3.02908 -2.62837,4.72167 1.15798,1.69258 5.43441,3.74171 9.08721,5.38993 3.65279,1.64822 6.68161,2.89538 9.80005,2.53901 3.11844,-0.35637 6.32534,-2.31615 9.66627,-4.76616 3.34094,-2.45002 6.81536,-5.38991 8.73083,-7.34997 1.91547,-1.96007 2.27183,-2.94005 2.40541,-3.65286 z"
         id="path899" />
      <path
         style="fill:#82715c;fill-opacity:1;stroke:none;stroke-width:0.26458332px;stroke-linecap:butt;stroke-linejoin:miter;stroke-opacity:1"
         d="m -155.8492,287.91269 c 1.9599,-3.38559 0.71265,-5.70193 -1.06906,-7.08266 -1.78171,-1.38073 -4.09835,-1.82623 -6.90444,-1.9153 -2.80609,-0.0891 -6.10285,0.17823 -10.06715,0.89092 -3.9643,0.71269 -8.5973,1.87093 -12.42806,3.2518 -3.83077,1.38086 -6.85994,2.98454 -6.37011,4.58805 0.48983,1.6035 4.49898,3.20717 8.19635,4.94447 3.69736,1.73731 7.0825,3.60804 9.49445,4.83967 2.41196,1.23163 4.00252,1.88657 4.93972,2.2344 0.93721,0.34784 1.46825,0.45404 4.2765,-1.73015 2.80824,-2.18419 7.9719,-6.63562 9.9318,-10.0212 z"
         id="path903" />
      <path
         style="fill:#6c5353;stroke:none;stroke-width:0.26458332px;stroke-linecap:butt;stroke-linejoin:miter;stroke-opacity:1"
         d="m -137.40751,282.83471 c -3.02937,-1.33648 -6.05842,-2.67283 -9.13181,-3.2073 -3.0734,-0.53448 -6.19187,-0.26717 -7.75083,0.4899 -1.55897,0.75708 -1.55902,5.03338 0.6683,6.54804 2.22732,1.51466 6.68141,1.78196 10.06706,0.84648 3.38564,-0.93547 5.70183,-3.07349 8.01817,-5.21166"
         id="path907" />
      <path
         style="fill:#927b6d;fill-opacity:1;stroke:none;stroke-width:0.26458332px;stroke-linecap:butt;stroke-linejoin:miter;stroke-opacity:1"
         d="m -141.06045,320.60868 c -1.51452,-2.40556 -6.41448,-7.12733 -12.02699,-10.64624 -5.61251,-3.51891 -11.93823,-5.83537 -19.7779,-9.44341 -7.83967,-3.60804 -17.19457,-8.50823 -24.58892,-11.49267 -7.39436,-2.98444 -12.82904,-4.05356 -17.81791,-4.49897 -4.98888,-0.44542 -9.53273,-0.26724 -12.07165,0.0891 -2.53892,0.35635 -3.07349,0.89091 -3.34075,7.43889 -0.26727,6.54797 -0.26727,19.10964 4.6772,25.34606 4.94446,6.23641 14.83321,6.14733 26.72689,6.10278 11.89368,-0.0445 25.79132,-0.0445 35.45762,-0.0891 9.6663,-0.0445 15.10068,-0.13363 18.75342,-0.22272 3.65274,-0.0891 5.52352,-0.17817 4.00899,-2.58373 z"
         id="path911" />
      <path
         style="fill:#c6ad95;fill-opacity:1;stroke:none;stroke-width:0.26458332px;stroke-linecap:butt;stroke-linejoin:miter;stroke-opacity:1"
         d="m -191.85464,283.25097 c 0.18887,0.23609 0.56685,0.70857 0.45653,1.21285 -0.11032,0.50428 -0.70842,1.03941 -1.54324,1.22837 -0.83482,0.18896 -1.90577,0.0315 -3.73231,-0.39367 -1.82653,-0.42514 -4.41011,-1.11829 -7.26044,-1.323 -2.85033,-0.2047 -5.96903,0.0788 -9.74864,0.063 -3.77961,-0.0158 -8.22117,-0.33076 -11.33941,-0.53549 -3.11825,-0.20473 -4.91376,-0.29923 -5.79557,-1.13393 -0.8818,-0.8347 -0.85029,-2.40984 -0.7873,-4.22081 0.063,-1.81096 0.1575,-3.85865 0.94476,-5.10264 0.78726,-1.244 2.26787,-1.68503 4.20506,-1.65356 1.93719,0.0315 4.33076,0.53536 7.2603,1.41737 2.92954,0.882 6.39386,2.14176 10.86684,3.74825 4.47297,1.6065 9.95311,3.55919 12.83523,4.69304 2.88211,1.13386 3.16558,1.44882 3.30744,1.60645 0.14186,0.15762 0.14187,0.15762 0.33075,0.39372 z"
         id="path915" />
      <path
         style="fill:#a18571;fill-opacity:1;stroke:none;stroke-width:0.26458332px;stroke-linecap:butt;stroke-linejoin:miter;stroke-opacity:1"
         d="m 328.49253,308.81167 c -0.22064,-1.35449 -2.3625,-2.42542 -5.32304,-3.46474 -2.96053,-1.03932 -6.74085,-2.04741 -10.48891,-2.20487 -3.74805,-0.15746 -7.46514,0.53555 -10.42588,1.1025 -2.96075,0.56695 -5.16573,1.00795 -5.63826,2.20461 -0.47252,1.19667 0.78751,3.14972 2.89811,3.81131 2.1106,0.66158 5.07094,0.0317 8.53582,-0.22029 3.46488,-0.25201 7.43337,-0.12602 10.39423,0.50389 2.96086,0.62991 4.9136,1.76376 6.74077,1.51174 1.82717,-0.25202 3.5278,-1.88965 3.30716,-3.24415 z"
         id="path927" />
      <path
         style="fill:#c7a27b;fill-opacity:1;stroke:none;stroke-width:0.26458332px;stroke-linecap:butt;stroke-linejoin:miter;stroke-opacity:1"
         d="m 293.15169,306.10266 c -2.23645,-1.98431 -6.01621,-4.31516 -12.5989,-6.20491 -6.58269,-1.88975 -15.96987,-3.33878 -24.82067,-4.2207 -8.8508,-0.88192 -17.16654,-1.1969 -25.13539,-0.94491 -7.96885,0.25198 -15.59162,1.07096 -22.80455,2.14188 -7.21293,1.07092 -14.01671,2.39387 -19.02474,4.56717 -5.00804,2.1733 -8.22095,5.19721 -9.54388,8.75633 -1.32292,3.55912 -0.75596,7.65387 1.44891,10.07936 2.20487,2.42548 6.04735,3.18138 13.92234,3.65389 7.875,0.4725 19.78031,0.66148 32.41116,0.78748 12.63086,0.126 25.98571,0.18899 35.68716,0.18899 9.70145,0 15.74895,-0.063 19.59176,-0.18898 3.84281,-0.12599 5.48063,-0.31497 7.52831,-2.55168 2.04769,-2.23671 4.50419,-6.51984 5.38605,-9.48076 0.88186,-2.96092 0.18888,-4.59885 -2.04756,-6.58316 z"
         id="path931" />
      <path
         style="fill:#a58a6e;fill-opacity:1;stroke:none;stroke-width:0.26458332px;stroke-linecap:butt;stroke-linejoin:miter;stroke-opacity:1"
         d="m 215.41456,295.33055 c 4.56715,-2.55143 -0.40953,-4.6933 -5.764,-6.36262 -5.35448,-1.66932 -11.08749,-2.86631 -16.88296,-3.93721 -5.79547,-1.0709 -11.65443,-2.0159 -16.94594,-2.29935 -5.29152,-0.28346 -10.01646,0.0945 -13.57555,1.63785 -3.55908,1.54331 -5.95305,4.25228 -5.03975,5.79568 0.91331,1.5434 5.13402,1.92137 9.95338,3.05532 4.81937,1.13395 10.23666,3.02371 12.91415,4.91358 2.67749,1.88987 2.6145,3.77963 9.63941,3.24411 7.02491,-0.53551 21.13411,-3.49593 25.70126,-6.04736 z"
         id="path935" />
      <path
         style="fill:#5c3f37;fill-opacity:1;stroke:none;stroke-width:0.26458332px;stroke-linecap:butt;stroke-linejoin:miter;stroke-opacity:1"
         d="m 181.8643,302.48989 c -0.33024,-0.99118 -0.77569,-2.9066 -2.15652,-4.4989 -1.38083,-1.59231 -3.69754,-2.86205 -7.10491,-3.8642 -3.40737,-1.00215 -7.90702,-1.73725 -12.01613,-1.82631 -4.10911,-0.0891 -7.82886,0.46778 -11.96511,2.02007 -4.13626,1.55229 -8.68994,4.10034 -11.33322,5.86309 -2.64327,1.76274 -3.42192,2.80094 -2.69759,4.1553 0.72434,1.35436 2.92911,3.05518 6.36269,4.81925 3.43359,1.76406 8.09466,3.5907 12.69356,4.40971 4.5989,0.819 9.13431,0.63002 13.95375,-1.19695 4.81944,-1.82697 9.92183,-5.29155 12.3654,-7.05737 2.44357,-1.76581 2.22832,-1.83252 1.89808,-2.82369 z"
         id="path939" />
      <path
         style="fill:#937c63;fill-opacity:1;stroke:none;stroke-width:0.26458332px;stroke-linecap:butt;stroke-linejoin:miter;stroke-opacity:1"
         d="m 160.90973,316.73323 c -0.22285,-1.51466 -1.60374,-3.341 -3.94212,-4.67717 -2.33839,-1.33617 -5.63524,-2.18267 -9.15407,-2.24946 -3.51882,-0.0668 -7.26094,0.646 -10.80207,2.62814 -3.54113,1.98215 -6.88218,5.2341 -6.50371,7.32767 0.37848,2.09357 4.47662,3.02902 7.32755,3.83082 2.85093,0.8018 4.45443,1.46993 6.43697,1.58134 1.98253,0.1114 4.34295,-0.33396 6.90444,-1.18036 2.56149,-0.8464 5.32305,-2.09355 7.17175,-3.31861 1.84871,-1.22505 2.78411,-2.42771 2.56126,-3.94237 z"
         id="path943" />
      <path
         style="fill:#b0977b;fill-opacity:1;stroke:none;stroke-width:0.26458332px;stroke-linecap:butt;stroke-linejoin:miter;stroke-opacity:1"
         d="m 135.58584,307.53478 c -1.62599,-1.09149 -4.61049,-3.40782 -8.32978,-5.05586 -3.71929,-1.64803 -8.17423,-2.62811 -11.93806,-2.29402 -3.76382,0.3341 -6.83763,1.98237 -8.86434,4.20946 -2.0267,2.22708 -3.00673,5.03352 -2.11593,7.39442 0.8908,2.36091 3.65243,4.27623 6.8376,5.43451 3.18517,1.15828 6.7929,1.55913 9.86663,1.62597 3.07373,0.0668 5.61259,-0.20041 8.30782,-2.00466 2.69523,-1.80424 5.54584,-5.1448 6.83758,-6.74838 1.29175,-1.60358 1.02447,-1.46994 -0.60152,-2.56144 z"
         id="path947" />
      <path
         style="fill:#d7b8a6;fill-opacity:1;stroke:none;stroke-width:0.26458332px;stroke-linecap:butt;stroke-linejoin:miter;stroke-opacity:1"
         d="m 122.97988,296.88846 c 0.245,-0.82406 0.69045,-2.29406 0.24492,-3.69719 -0.44554,-1.40313 -1.78205,-2.73964 -3.96446,-3.71947 -2.18242,-0.97982 -5.21207,-1.60358 -8.73089,-1.78173 -3.51881,-0.17816 -7.52826,0.0891 -10.869015,0.57913 -3.340754,0.48999 -6.013619,1.20275 -9.176242,1.29181 -3.162623,0.0891 -6.815553,-0.44551 -7.639715,0.0221 -0.824162,0.46757 1.180527,1.93768 3.898011,3.25189 2.717484,1.31422 6.146933,2.47221 9.309764,3.27407 3.162831,0.80186 6.057987,1.24726 10.445977,1.51456 4.38799,0.26729 10.26732,0.35638 13.22971,0.31173 2.9624,-0.0446 3.00694,-0.2228 3.25194,-1.04687 z"
         id="path951" />
      <path
         style="fill:#5e452a;fill-opacity:1;stroke:none;stroke-width:0.26458332px;stroke-linecap:butt;stroke-linejoin:miter;stroke-opacity:1"
         d="m 60.822671,287.66778 c -3.608307,-3.22948 -14.209998,-4.56583 -21.247922,-3.98675 -7.037924,0.57909 -10.512531,3.07368 -12.38338,5.96893 -1.87085,2.89524 -2.138126,6.19164 0.200515,7.97356 2.338641,1.78191 7.282766,2.04916 11.938149,2.44741 4.655383,0.39825 9.108982,0.93808 12.115844,1.13855 3.006861,0.20047 4.610371,0.0668 7.105279,-2.56173 2.494908,-2.62857 5.879823,-7.75048 2.271515,-10.97997 z"
         id="path959" />
      <path
         style="fill:#d9c6a9;fill-opacity:1;stroke:none;stroke-width:0.26458332px;stroke-linecap:butt;stroke-linejoin:miter;stroke-opacity:1"
         d="m 101.73168,297.15561 c 1.49222,2.29408 2.65039,3.54135 3.10024,4.81191 0.44985,1.27056 0.17407,2.64944 -0.36052,4.03051 -0.5346,1.38106 -1.33629,2.80629 -3.36325,4.41003 -2.026965,1.60373 -5.278539,3.38542 -8.196206,4.87766 -2.917668,1.49224 -5.501359,2.69498 -7.617233,1.89305 -2.115875,-0.80193 -3.764114,-3.60839 -6.080343,-5.99137 -2.316229,-2.38298 -5.30107,-4.34317 -8.352243,-5.72397 -3.051173,-1.38079 -6.169634,-2.18268 -8.86544,-2.82404 -2.695805,-0.64136 -5.055011,-1.14042 -5.3445,-2.40979 -0.28949,-1.26937 1.447988,-3.31871 3.363407,-5.63503 1.91542,-2.31633 4.009064,-4.89998 5.590381,-6.68175 1.581317,-1.78177 2.650408,-2.76176 4.944362,-3.20721 2.293954,-0.44546 5.812963,-0.35638 10.356741,0.31181 4.543777,0.66819 10.111463,1.91536 13.808811,4.20939 3.697348,2.29404 5.523583,5.63472 7.015793,7.9288 z"
         id="path955" />
      <path
         style="fill:#9d8d7d;fill-opacity:1;stroke:none;stroke-width:0.26458332px;stroke-linecap:butt;stroke-linejoin:miter;stroke-opacity:1"
         d="m 24.535356,290.87495 c -1.046767,0.69061 -3.585827,1.53696 -6.213969,1.62601 -2.628142,0.089 -5.345552,-0.57917 -8.5080169,-1.02457 -3.162465,-0.44541 -6.7710155,-0.66816 -9.46592527,-0.91316 -2.69490973,-0.245 -4.47684903,-0.51228 -5.83540043,-0.84638 -1.3585515,-0.3341 -2.2941537,-0.73507 -3.3852719,-1.44767 -1.0911182,-0.71259 -2.3388005,-1.73748 -3.4077845,-2.5392 -1.068983,-0.80173 -1.960091,-1.38094 0.177216,-2.02661 2.1373068,-0.64566 7.3062947,-1.35863 12.29538561,-0.98003 4.98909089,0.3786 9.79973139,1.84852 13.85342439,3.09581 4.053692,1.24729 7.349804,2.27176 9.220754,3.05123 1.87095,0.77948 2.316355,1.31396 1.269588,2.00457 z"
         id="path963" />
      <path
         style="fill:#c3a998;fill-opacity:1;stroke:none;stroke-width:0.26458332px;stroke-linecap:butt;stroke-linejoin:miter;stroke-opacity:1"
         d="m 123.21982,318.95407 c 2.39385,0.40947 2.83483,0.47247 4.18999,1.07125 1.35517,0.59879 3.62151,1.73196 5.669,2.58247 2.0475,0.85052 3.87413,1.4174 1.22771,1.85846 -2.64642,0.44105 -9.76373,0.75597 -17.82707,0.81897 -8.06335,0.063 -17.072095,-0.126 -23.245668,-0.40949 -6.173572,-0.28349 -9.512461,-0.66147 -9.449497,-2.01575 0.06296,-1.35428 3.528049,-3.68534 7.244801,-5.57522 3.716753,-1.88989 7.685436,-3.33878 11.244684,-3.30735 3.55924,0.0314 6.70894,1.54327 10.45742,2.67729 3.74849,1.13401 8.09479,1.88989 10.48863,2.29937 z"
         id="path967" />
      <path
         style="fill:#e2d9cb;fill-opacity:1;stroke:none;stroke-width:0.26458332px;stroke-linecap:butt;stroke-linejoin:miter;stroke-opacity:1"
         d="m -131.85083,301.66173 c 5.03966,-3.96874 10.26833,-7.6225 15.7174,-9.29192 5.44907,-1.66943 11.11866,-1.35445 15.18197,0.15739 4.063324,1.51184 6.520047,4.22053 7.40211,6.29955 0.882063,2.07902 0.189171,3.5278 -2.551393,5.92185 -2.740564,2.39406 -7.527897,5.73259 -12.000577,9.07135 -4.47268,3.33876 -8.63046,6.67759 -13.63874,8.56747 -5.00827,1.88988 -10.86694,2.33086 -15.27664,2.01583 -4.4097,-0.31503 -7.37063,-1.38601 -8.72489,-3.21282 -1.35425,-1.82681 -1.10225,-4.40991 1.44885,-7.84287 2.5511,-3.43297 7.40224,-7.71709 12.44191,-11.68583 z"
         id="path971" />
      <path
         style="fill:#a78e74;fill-opacity:1;stroke:none;stroke-width:0.26458332px;stroke-linecap:butt;stroke-linejoin:miter;stroke-opacity:1"
         d="m -73.327661,292.65327 c -4.724829,0.81891 -10.835443,-0.063 -14.111123,-1.22856 -3.27568,-1.16552 -3.716677,-2.61451 -3.118343,-4.22057 0.598334,-1.60605 2.236583,-3.37032 5.10279,-4.72471 2.866206,-1.35439 6.960975,-2.29934 10.362766,-2.39387 3.401792,-0.0945 6.110489,0.66138 8.189478,1.9213 2.078988,1.25992 3.527736,3.02361 2.582625,5.16584 -0.945111,2.14223 -4.283364,4.66166 -9.008193,5.48057 z"
         id="path975" />
      <path
         style="fill:#d3bfa9;fill-opacity:1;stroke:none;stroke-width:0.26458332px;stroke-linecap:butt;stroke-linejoin:miter;stroke-opacity:1"
         d="m -13.418545,287.64491 c -6.29962,-3.24418 -13.98514,-4.5041 -22.426413,-5.16553 -8.441274,-0.66144 -17.639054,-0.72444 -23.43457,-0.12596 -5.795516,0.59847 -8.189439,1.85844 -9.963488,3.68465 -1.77405,1.82621 -2.929607,4.22124 -2.425774,5.98513 0.503833,1.76389 2.666648,2.89777 5.795796,3.59082 3.129149,0.69305 7.223298,0.94499 10.71966,1.76392 3.496362,0.81893 6.39397,2.20474 8.441593,1.66917 2.047623,-0.53558 3.244415,-2.99216 7.433309,-3.02371 4.188895,-0.0316 11.370761,2.3624 16.500166,3.86708 5.129405,1.50467 8.351753,2.14914 12.257769,2.24366 3.906016,0.0945 8.567266,-0.34641 8.441139,-3.18152 -0.126127,-2.83511 -5.0395667,-8.06352 -11.339187,-11.30771 z"
         id="path979" />
      <path
         style="fill:#e2ceb4;fill-opacity:1;stroke:none;stroke-width:0.26458332px;stroke-linecap:butt;stroke-linejoin:miter;stroke-opacity:1"
         d="m -27.655686,294.70051 c 1.763884,0.66147 3.023816,1.10244 3.905932,2.14198 0.882116,1.03955 1.385956,2.67703 1.952977,4.4726 0.567021,1.79557 1.196867,3.74809 0.251781,6.20532 -0.945085,2.45723 -3.464518,5.41756 -6.960918,7.43348 -3.4964,2.01591 -7.969092,3.08683 -10.992916,2.99222 -3.023824,-0.0946 -4.598791,-1.35458 -5.26012,-4.03154 -0.661329,-2.67695 -0.409298,-6.77246 0.126159,-10.20562 0.535457,-3.43316 1.354459,-6.20517 3.181142,-8.00041 1.826683,-1.79525 4.661678,-2.61425 7.213019,-2.58282 2.55134,0.0314 4.819059,0.91333 6.582944,1.57479 z"
         id="path983" />
      <path
         style="fill:#ceb79e;fill-opacity:1;stroke:none;stroke-width:0.26458332px;stroke-linecap:butt;stroke-linejoin:miter;stroke-opacity:1"
         d="m -45.861491,305.6302 c -3.275818,-3.08677 -6.551618,-5.48063 -12.000402,-6.48847 -5.448784,-1.00784 -13.072004,-0.62982 -20.34787,1.00805 -7.275867,1.63787 -14.205664,4.53579 -20.599653,8.40999 -6.393994,3.87419 -12.252734,8.72498 -15.654494,11.68577 -3.40176,2.96079 -4.3467,4.03171 0.75593,4.3782 5.10264,0.34649 16.252749,-0.0315 27.088183,-0.15748 10.835434,-0.12599 21.355524,0 30.17506,0.063 8.819537,0.063 15.937917,0.063 19.056283,-1.32313 3.118366,-1.38612 2.236458,-4.15784 0.157703,-7.43341 -2.078756,-3.27556 -5.354921,-7.05575 -8.63074,-10.14252 z"
         id="path987" />
      <path
         style="fill:#c6ad95;fill-opacity:1;stroke:none;stroke-width:0.26458332px;stroke-linecap:butt;stroke-linejoin:miter;stroke-opacity:1"
         d="m 82.154325,317.95819 c -0.579219,-2.24961 -2.628297,-4.92233 -6.726137,-7.57252 -4.097839,-2.6502 -10.245712,-5.27864 -18.419422,-6.94899 -8.17371,-1.67036 -18.375028,-2.38311 -28.53112,-2.65037 -10.156091,-0.26726 -20.2680613,-0.0891 -27.8851561,0.37865 -7.6170948,0.46773 -12.7398959,1.22501 -16.3255959,2.85082 -3.5857,1.6258 -5.634856,4.12043 -6.681671,6.83757 -1.046816,2.71713 -1.091362,5.65705 -6e-5,8.0403 1.091302,2.38325 3.318354,4.20943 9.132083,5.21181 5.8137291,1.00239 15.2114894,1.18054 30.067516,1.2251 14.856026,0.0446 35.167927,-0.0445 46.771921,-0.31179 11.603993,-0.26726 14.499374,-0.7127 16.392703,-1.84874 1.893328,-1.13604 2.784159,-2.96224 2.204939,-5.21184 z"
         id="path991" />
      <path
         style="fill:#baa187;fill-opacity:1;stroke:none;stroke-width:0.26458332px;stroke-linecap:butt;stroke-linejoin:miter;stroke-opacity:1"
         d="m 321.67214,313.52607 c -5.61264,-1.46991 -11.84893,-1.91536 -16.08058,-1.73716 -4.23164,0.1782 -6.459,0.98004 -7.66162,3.16247 -1.20263,2.18242 -1.38082,5.74625 0.22276,7.88453 1.60358,2.13828 4.98876,2.85095 9.84447,2.98461 4.85571,0.13366 11.18052,-0.31175 17.77235,-0.47791 6.59184,-0.16616 16.58929,-0.001 18.54917,-0.84765 1.95988,-0.84645 -2.54791,-2.67816 -7.29621,-4.84122 -4.7483,-2.16307 -9.73769,-4.65776 -15.35034,-6.12767 z"
         id="path995" />
      <path
         style="fill:#9a8166;fill-opacity:1;stroke:none;stroke-width:0.26458332px;stroke-linecap:butt;stroke-linejoin:miter;stroke-opacity:1"
         d="m 349.78539,318.44994 c 0.28348,-1.66941 0.66145,-4.18925 -0.0946,-5.95306 -0.75604,-1.76382 -2.6461,-2.77185 -5.41758,-3.14976 -2.77148,-0.37791 -6.42586,-0.12588 -9.92196,0.88201 -3.4961,1.0079 -6.83511,2.7719 -6.86676,4.56715 -0.0317,1.79525 3.24425,3.62219 6.64619,5.07119 3.40195,1.44899 6.9294,2.51983 9.44939,2.77186 2.51999,0.25204 4.03176,-0.31488 4.88231,-1.00799 0.85055,-0.69312 1.03952,-1.512 1.323,-3.1814 z"
         id="path919" />
    </g>
    <text
       id="text1135"
       y="94.404755"
       x="-485.32141"
       style="font-style:normal;font-variant:normal;font-weight:normal;font-stretch:normal;font-size:1.41111112px;line-height:1.25;font-family:C059;-inkscape-font-specification:C059;letter-spacing:0px;word-spacing:0px;fill:#000000;fill-opacity:1;stroke:none;stroke-width:0.26458332"
       xml:space="preserve"><tspan
         style="font-style:normal;font-variant:normal;font-weight:normal;font-stretch:normal;font-family:Z003;-inkscape-font-specification:Z003;stroke-width:0.26458332"
         y="95.621132"
         x="-485.32141"
         id="tspan1133" /></text>
    <flowRoot
       transform="scale(0.26458333)"
       style="font-style:normal;font-variant:normal;font-weight:normal;font-stretch:normal;font-size:5.33333349px;line-height:1.25;font-family:C059;-inkscape-font-specification:C059;letter-spacing:0px;word-spacing:0px;fill:#000000;fill-opacity:1;stroke:none"
       id="flowRoot1137"
       xml:space="preserve"><flowRegion
         style="font-style:normal;font-variant:normal;font-weight:normal;font-stretch:normal;font-family:C059;-inkscape-font-specification:C059"
         id="flowRegion1139"><rect
           style="font-style:normal;font-variant:normal;font-weight:normal;font-stretch:normal;font-family:C059;-inkscape-font-specification:C059"
           y="262.51968"
           x="-1791.4286"
           height="168.57143"
           width="71.428574"
           id="rect1141" /></flowRegion><flowPara
         id="flowPara1143"></flowPara></flowRoot>    <g
       transform="matrix(1.0872274,0,0,1.0872274,31.153217,-22.835368)"
       id="g1278">
      <path
         style="fill:#d9c6a9;fill-opacity:1;stroke:none;stroke-width:0.26458332px;stroke-linecap:butt;stroke-linejoin:miter;stroke-opacity:1"
         d="m -440.6325,245.4591 c 0.60305,-1.78065 2.16336,-4.28232 3.82727,-7.71368 1.6639,-3.43137 3.43187,-7.79346 5.16269,-11.73333 1.73083,-3.93988 3.42493,-7.45856 4.84846,-10.44161 1.42353,-2.98305 2.5768,-5.43112 4.58576,-6.41779 2.00896,-0.98667 4.8743,-0.51238 6.78339,1.17476 1.90909,1.68715 2.86272,4.58787 4.42123,9.26294 1.55851,4.67508 3.72178,11.12415 5.46026,16.55267 1.73847,5.42851 3.052,9.83598 2.92628,12.55258 -0.12572,2.7166 -1.691,3.74222 -3.37001,4.02022 -1.67901,0.278 -3.47086,-0.19172 -4.67249,-1.28076 -1.20164,-1.08904 -1.8123,-2.79671 -2.32844,-4.56336 -0.51615,-1.76665 -0.93777,-3.59227 -2.61267,-4.63303 -1.6749,-1.04076 -4.60394,-1.29702 -7.02249,-1.50862 -2.41854,-0.21159 -4.32651,-0.37852 -5.91023,0.69383 -1.58371,1.07234 -2.88161,3.45534 -3.65045,5.08732 -0.76885,1.63197 -1.02785,2.54821 -2.3336,2.90362 -1.30575,0.35542 -3.65688,0.14972 -5.01023,-0.48302 -1.35335,-0.63273 -1.70778,-1.69209 -1.10473,-3.47274 z"
         id="path1195" />
      <path
         style="fill:#ffffff;stroke:none;stroke-width:0.26458332px;stroke-linecap:butt;stroke-linejoin:miter;stroke-opacity:1"
         d="m -420.32912,222.17262 c -2.32767,-0.22609 -5.21532,5.69195 -4.3312,8.87716 0.88412,3.18521 5.5394,3.63721 6.98313,0.67828 1.44373,-2.95893 -0.32425,-9.32935 -2.65193,-9.55544 z"
         id="path1199" />
    </g>
    <path
       id="path1203"
       d="m -397.54247,210.9735 c 0.0484,8.16053 10e-6,21.86633 0.82346,28.88891 0.82344,7.02259 2.51848,7.36161 6.80416,7.67637 4.28568,0.31476 11.16368,0.60538 15.8614,0.67801 4.69772,0.0726 7.21622,-0.0727 8.30575,-1.54973 1.08953,-1.47707 0.75047,-4.28638 -2.08232,-5.98129 -2.83279,-1.6949 -8.16062,-2.27613 -12.01093,-2.83308 -3.8503,-0.55696 -6.22328,-1.08966 -7.28884,-4.57711 -1.06556,-3.48744 -0.82344,-9.92812 -0.77499,-15.39987 0.0484,-5.47176 -0.0969,-9.97755 -0.19375,-13.29498 -0.0969,-3.31742 -0.14529,-5.44848 -1.76735,-6.41698 -1.62205,-0.96849 -4.81887,-0.77474 -6.34459,0.62974 -1.52572,1.40448 -1.38044,4.01948 -1.332,12.18001 z"
       style="fill:#927b6d;fill-opacity:1;stroke:none;stroke-width:0.28766224px;stroke-linecap:butt;stroke-linejoin:miter;stroke-opacity:1" />
    <path
       id="path1207"
       d="m -299.90003,249.27008 c -0.0484,-3.72919 0.14531,-9.44397 0.14531,-16.22401 -10e-6,-6.78004 -0.19374,-14.62621 0.19378,-19.46926 0.38753,-4.84304 1.35617,-6.68346 3.68048,-7.02238 2.32432,-0.33892 6.00574,0.82363 10.02523,6.0538 4.0195,5.23017 8.37845,14.52927 10.36412,15.2556 1.98567,0.72634 1.59823,-7.1193 1.69513,-12.25292 0.0969,-5.13362 0.67809,-7.55522 2.56675,-8.76581 1.88867,-1.21059 5.08554,-1.21059 6.97414,1.64642 1.8886,2.85701 2.46982,8.57232 2.61513,15.93392 0.1453,7.3616 -0.14527,16.36929 -0.339,22.42314 -0.19373,6.05385 -0.29059,9.1533 -2.131,10.46107 -1.8404,1.30777 -5.42393,0.8235 -8.57214,-1.45292 -3.1482,-2.27641 -5.86014,-6.3443 -8.5238,-11.28419 -2.66366,-4.93988 -5.27894,-10.75163 -6.53811,-9.54104 -1.25916,1.21058 -1.1623,9.44393 -1.21071,14.67446 -0.0484,5.23053 -0.24213,7.45823 -1.98577,8.08794 -1.74365,0.62971 -5.03646,-0.33876 -6.82851,-1.69501 -1.79205,-1.35624 -2.08262,-3.09962 -2.13103,-6.82881 z"
       style="fill:#917c6f;fill-opacity:1;stroke:none;stroke-width:0.28766224px;stroke-linecap:butt;stroke-linejoin:miter;stroke-opacity:1" />
    <path
       id="path1211"
       d="m -221.90152,223.61938 c -2.51853,-0.43577 -5.23064,-2.37299 -8.04674,-2.72935 -2.81609,-0.35636 -5.90108,0.93733 -8.41968,3.60114 -2.5186,2.66381 -4.55244,6.73149 -4.93995,10.60617 -0.38751,3.87468 0.87159,7.5551 2.95429,9.78303 2.0827,2.22793 4.98841,3.00279 7.99106,2.56685 3.00265,-0.43594 6.10241,-2.08269 9.05642,-2.32479 2.95401,-0.2421 5.76328,0.92036 7.11927,3.39004 1.35599,2.46968 1.25913,6.24745 -1.45303,8.91129 -2.71216,2.66384 -8.03908,4.21349 -13.56145,4.55964 -5.52236,0.34616 -11.42839,-0.53973 -15.59361,-3.20357 -4.16522,-2.66384 -6.68351,-7.11926 -8.33012,-12.30132 -1.64662,-5.18207 -2.42152,-11.09072 -1.79824,-16.64381 0.62328,-5.55309 2.67016,-10.81651 5.52754,-14.15806 2.85738,-3.34154 6.53836,-4.79455 11.23582,-5.66622 4.69745,-0.87167 10.41278,-1.16228 14.52918,-0.38742 4.11639,0.77486 6.63491,2.61531 8.18463,4.84296 1.54972,2.22765 2.1309,4.84296 1.25925,6.68338 -0.87165,1.84043 -3.19611,2.9058 -5.71464,2.47004 z"
       style="fill:#c3a998;fill-opacity:1;stroke:none;stroke-width:0.28766224px;stroke-linecap:butt;stroke-linejoin:miter;stroke-opacity:1" />
    <path
       id="path1215"
       d="m -210.12119,223.06713 c -0.14531,3.24485 -0.33903,8.86279 -0.33903,15.93386 -1e-5,7.07108 0.1937,15.5944 0.82334,20.29233 0.62964,4.69793 1.69508,5.56964 4.93997,6.15079 3.24488,0.58114 8.66924,0.87174 13.46377,0.87173 4.79453,-10e-6 8.95976,-0.29062 11.38116,-1.35618 2.4214,-1.06556 3.09948,-2.90604 2.76053,-4.55238 -0.33894,-1.64634 -1.69525,-3.09952 -4.16504,-3.82598 -2.4698,-0.72645 -6.05367,-0.72645 -8.95958,-0.67802 -2.90591,0.0484 -5.13355,0.14529 -6.68354,-0.29065 -1.55,-0.43594 -2.42163,-1.40442 -2.80906,-3.00274 -0.38743,-1.59833 -0.29056,-3.82617 2.08238,-5.23049 2.37294,-1.40432 7.02289,-1.98557 10.55822,-2.27613 3.53532,-0.29057 5.95701,-0.29057 7.16762,-1.16236 1.21061,-0.87178 1.21061,-2.61548 0.7748,-4.06817 -0.43581,-1.45268 -1.30771,-2.61522 -3.24473,-3.34163 -1.93702,-0.72641 -4.93981,-1.01701 -7.895,-1.34989 -2.95519,-0.33288 -6.0529,-0.73259 -7.79656,-2.08886 -1.74366,-1.35628 -2.22793,-3.68073 -1.06556,-4.84297 1.16236,-1.16224 3.97159,-1.16224 7.45837,-1.21066 3.48679,-0.0484 7.65225,-0.14529 10.26739,-1.16243 2.61515,-1.01713 3.6807,-2.95449 2.85757,-4.69765 -0.82312,-1.74316 -3.53571,-3.29321 -9.05682,-3.77754 -5.5211,-0.48433 -13.85085,0.0968 -18.06444,0.82314 -4.21359,0.72633 -4.31045,1.59803 -4.45576,4.84288 z"
       style="fill:#c6ad95;fill-opacity:1;stroke:none;stroke-width:0.28766224px;stroke-linecap:butt;stroke-linejoin:miter;stroke-opacity:1" />
    <g
       transform="matrix(1.0872274,0,0,1.0872274,23.135131,-23.904446)"
       id="g1274">
      <path
         style="fill:#c6ad95;fill-opacity:1;stroke:none;stroke-width:0.26458332px;stroke-linecap:butt;stroke-linejoin:miter;stroke-opacity:1"
         d="m -471.92387,210.32045 c -1.06921,4.7439 -1.02467,14.18742 -1.24738,20.71329 -0.22271,6.52587 -0.71269,10.13391 -0.15584,12.80682 0.55686,2.67291 2.16034,4.41 4.43229,5.01134 2.27196,0.60134 5.21191,0.0668 8.90926,-0.48715 3.69735,-0.55395 8.24067,-1.13874 11.67053,-2.76466 3.42987,-1.62593 5.7909,-4.29881 6.48125,-7.17173 0.69034,-2.87292 -0.28976,-5.94685 -1.82645,-8.30759 -1.5367,-2.36074 -3.63041,-4.00899 -5.43441,-4.98898 -1.80399,-0.97998 -3.31849,-1.29179 -2.67236,-2.47249 0.64613,-1.18071 3.45209,-3.2295 4.56558,-5.7684 1.11348,-2.53889 0.53433,-5.56827 -0.71277,-7.41673 -1.24711,-1.84846 -3.16266,-2.51668 -6.37003,-2.98443 -3.20737,-0.46775 -7.70605,-0.735 -11.04696,-0.84637 -3.34092,-0.11137 -5.52349,-0.0668 -6.59271,4.67708 z"
         id="path1183" />
      <path
         style="fill:#ffffff;fill-opacity:1;stroke:none;stroke-width:0.26458332px;stroke-linecap:butt;stroke-linejoin:miter;stroke-opacity:1"
         d="m -463.48248,210.98865 c -1.26951,0.33396 -2.20495,1.09122 -2.60598,2.49469 -0.40104,1.40348 -0.26745,3.45191 0.1112,5.12249 0.37865,1.67058 1.00221,2.96223 2.60612,3.36314 1.60391,0.40091 4.18728,-0.089 6.24829,-1.1693 2.061,-1.08027 3.64069,-2.79536 3.23987,-4.55459 -0.40082,-1.75923 -2.76208,-3.58586 -4.74424,-4.54359 -1.98217,-0.95772 -3.58576,-1.04681 -4.85526,-0.71284 z"
         id="path1187" />
      <path
         style="fill:#ffffff;fill-opacity:1;stroke:none;stroke-width:0.26458332px;stroke-linecap:butt;stroke-linejoin:miter;stroke-opacity:1"
         d="m -464.44032,229.58612 c -2.18285,1.87078 -2.04921,5.38982 -1.6483,7.66174 0.40092,2.27193 1.06903,3.29637 3.16292,3.6973 2.09388,0.40092 5.61271,0.17821 7.88439,-1.02457 2.27168,-1.20277 3.2963,-3.38563 3.38535,-5.65717 0.089,-2.27154 -0.75742,-4.63275 -3.42981,-5.70178 -2.67239,-1.06903 -7.17171,-0.84629 -9.35455,1.02448 z"
         id="path1191" />
    </g>
    <g
       transform="matrix(1.0872274,0,0,1.0872274,30.084138,-22.835368)"
       id="g1282">
      <path
         style="fill:#666666;fill-opacity:1;stroke:none;stroke-width:0.26458332px;stroke-linecap:butt;stroke-linejoin:miter;stroke-opacity:1"
         d="m -351.43581,243.38975 c 0.60305,-1.78065 2.16336,-4.28232 3.82727,-7.71368 1.6639,-3.43137 3.43187,-7.79346 5.16269,-11.73333 1.73083,-3.93988 3.42493,-7.45856 4.84846,-10.44161 1.42353,-2.98305 2.5768,-5.43112 4.58576,-6.41779 2.00896,-0.98667 4.8743,-0.51238 6.78339,1.17476 1.90909,1.68715 2.86272,4.58787 4.42123,9.26294 1.55851,4.67507 3.72178,11.12415 5.46026,16.55267 1.73847,5.42851 3.052,9.83598 2.92628,12.55258 -0.12572,2.7166 -1.691,3.74221 -3.37001,4.02022 -1.67901,0.278 -3.47086,-0.19172 -4.67249,-1.28076 -1.20164,-1.08904 -1.8123,-2.79671 -2.32844,-4.56336 -0.51615,-1.76665 -0.93777,-3.59227 -2.61267,-4.63303 -1.6749,-1.04076 -4.60394,-1.29702 -7.02249,-1.50862 -2.41854,-0.21159 -4.32651,-0.37852 -5.91023,0.69383 -1.58371,1.07234 -2.88161,3.45534 -3.65045,5.08731 -0.76884,1.63197 -1.02785,2.54822 -2.3336,2.90363 -1.30575,0.35541 -3.65688,0.14972 -5.01023,-0.48302 -1.35335,-0.63273 -1.70778,-1.69209 -1.10473,-3.47274 z"
         id="path1195-9" />
      <path
         style="fill:#ffffff;stroke:none;stroke-width:0.26458332px;stroke-linecap:butt;stroke-linejoin:miter;stroke-opacity:1"
         d="m -331.13243,220.10327 c -2.32767,-0.22609 -5.21532,5.69195 -4.3312,8.87716 0.88412,3.18521 5.5394,3.63721 6.98313,0.67828 1.44373,-2.95893 -0.32425,-9.32935 -2.65193,-9.55544 z"
         id="path1199-2" />
    </g>
  </g>
</svg>
